<?xml version="1.0" standalone="no"?>
<!DOCTYPE svg PUBLIC "-//W3C//DTD SVG 20010904//EN"
 "http://www.w3.org/TR/2001/REC-SVG-20010904/DTD/svg10.dtd">
<svg version="1.0" xmlns="http://www.w3.org/2000/svg"
 width="1056.000000pt" height="1056.000000pt" viewBox="0 0 1056.000000 1056.000000"
 preserveAspectRatio="xMidYMid meet">
<metadata>
Created by potrace 1.14, written by Peter Selinger 2001-2017
</metadata>
<g transform="translate(0.000000,1056.000000) scale(0.100000,-0.100000)"
fill="#000000" stroke="none">
<path d="M1999 10556 c-2 -2 -36 -6 -76 -9 -111 -9 -306 -52 -443 -97 -317
-105 -606 -284 -840 -520 -145 -145 -224 -244 -319 -398 -117 -189 -237 -482
-267 -652 -3 -14 -7 -32 -9 -40 -3 -8 -7 -32 -11 -54 -3 -21 -7 -47 -9 -57 -2
-10 -7 -49 -12 -86 -10 -84 -11 -6620 -1 -6719 11 -109 46 -274 79 -381 17
-54 32 -102 33 -108 1 -5 9 -26 18 -46 9 -20 19 -46 23 -59 14 -43 107 -223
162 -312 165 -269 423 -525 704 -699 252 -157 601 -277 890 -306 98 -10 6645
-10 6729 0 362 43 740 193 1032 409 100 74 137 107 253 223 131 132 212 234
307 387 109 176 237 487 264 643 2 17 7 37 9 45 3 8 7 32 11 54 3 21 7 48 9
59 3 11 8 52 12 91 10 91 11 6616 0 6715 -16 163 -84 434 -142 569 -128 296
-275 515 -485 722 -118 117 -146 141 -240 208 -36 26 -67 49 -70 52 -14 17
-193 118 -293 165 -185 88 -332 132 -642 191 -39 8 -6668 18 -6676 10z"/>
</g>
</svg>
